# xmcd CD database file
#
# Track frame offsets:
#	150
#	13215
#	25085
#	38623
#	50930
#	62480
#	71676
#	84144
#	94255
#	103983
#
# Disc length: 1544 seconds
#
# Revision: 0
# Processed by: cddbd v1.4PL0 Copyright (c) Steve Scherf et al.
# Submitted via: CDex 1.50beta10
#
DISCID=8006060a
DTITLE=Various Artist - The Veriton Blues
DYEAR=2003
DGENRE=Blues
TTITLE0=Texas Tornado
TTITLE1=Big City Blues
TTITLE2=Bar Band Blues
TTITLE3=Harmonica Blues
TTITLE4=Muddy Mississippi Blues
TTITLE5=Just A Kiss
TTITLE6=Strutin'
TTITLE7=Rockabilly Blues
TTITLE8=Wild Times
TTITLE9=Cantina Blues
EXTD=YEAR: 2003
EXTT0=
EXTT1=
EXTT2=
EXTT3=
EXTT4=
EXTT5=
EXTT6=
EXTT7=
EXTT8=
EXTT9=
PLAYORDER=
